<svg id="Capa_1" data-name="Capa 1" xmlns="http://www.w3.org/2000/svg" viewBox="0 0 512 512"><defs><style>.cls-1{fill:#0158ff;}</style></defs><path d="M437,75A256,256,0,0,1,75,437,256,256,0,0,1,437,75Zm45,181C482,131.38,380.62,30,256,30S30,131.38,30,256,131.38,482,256,482,482,380.62,482,256Z"/><path class="cls-1" d="M256,30c124.62,0,226,101.38,226,226S380.62,482,256,482,30,380.62,30,256,131.38,30,256,30ZM407.57,256a15,15,0,0,0-6.68-12.48L208.09,115a15,15,0,0,0-23.32,12.49V384.53A15,15,0,0,0,208.09,397l192.8-128.53A15,15,0,0,0,407.57,256Z"/><path d="M400.89,243.52a15,15,0,0,1,0,25L208.09,397a15,15,0,0,1-23.32-12.48V127.47A15,15,0,0,1,208.09,115Zm-186.13,113L365.52,256,214.76,155.49Z"/></svg>