<svg id="Capa_1" data-name="Capa 1" xmlns="http://www.w3.org/2000/svg" viewBox="0 0 512 512"><defs><style>.cls-1{fill:#0158ff;}</style></defs><path class="cls-1" d="M256,30c124.62,0,226,101.38,226,226S380.62,482,256,482,30,380.62,30,256,131.38,30,256,30ZM361,356V156a15,15,0,0,0-15-15H286a15,15,0,0,0-15,15V356a15,15,0,0,0,15,15h60A15,15,0,0,0,361,356Zm-120,0V156a15,15,0,0,0-15-15H166a15,15,0,0,0-15,15V356a15,15,0,0,0,15,15h60A15,15,0,0,0,241,356Z"/><path d="M437,75A256,256,0,0,1,75,437,256,256,0,0,1,437,75Zm45,181C482,131.38,380.62,30,256,30S30,131.38,30,256,131.38,482,256,482,482,380.62,482,256Z"/><path d="M361,156V356a15,15,0,0,1-15,15H286a15,15,0,0,1-15-15V156a15,15,0,0,1,15-15h60A15,15,0,0,1,361,156ZM331,341V171H301V341Z"/><path d="M241,156V356a15,15,0,0,1-15,15H166a15,15,0,0,1-15-15V156a15,15,0,0,1,15-15h60A15,15,0,0,1,241,156ZM211,341V171H181V341Z"/></svg>