<svg id="Capa_1" data-name="Capa 1" xmlns="http://www.w3.org/2000/svg" viewBox="0 0 412.73 412.73"><defs><style>.cls-1{fill:#fff;}</style></defs><path class="cls-1" d="M295.71,35.52a117,117,0,0,1,117,117c0,112.33-193.31,218.91-201.15,223.09a9.42,9.42,0,0,1-10.45,0C193.31,371.46,0,263.31,0,152.55a117,117,0,0,1,117-117,114.42,114.42,0,0,1,89.34,41.27A116,116,0,0,1,295.71,35.52Zm96.13,117A96.13,96.13,0,0,0,215.25,99.78a11,11,0,0,1-17.76,0A94,94,0,0,0,117,56.42,96.13,96.13,0,0,0,20.9,152.55c0,89.86,155.17,184.42,185.47,202.19C236.67,337.5,391.84,243.46,391.84,152.55Z"/></svg>