<?xml version="1.0" encoding="utf-8"?>
<!-- Generator: Adobe Illustrator 25.0.0, SVG Export Plug-In . SVG Version: 6.00 Build 0)  -->
<svg version="1.1" id="Layer_1" xmlns="http://www.w3.org/2000/svg" xmlns:xlink="http://www.w3.org/1999/xlink" x="0px" y="0px"
	 viewBox="0 0 169.1 169.1" style="enable-background:new 0 0 169.1 169.1;" xml:space="preserve">
<style type="text/css">
	.st0{fill:#FFFFFF;}
</style>
<g>
	<g id="XMLID_1_">
		<g>
			<path class="st0" d="M169.1,46.7v75.8c0,25.7-20.9,46.7-46.6,46.7H46.7C20.9,169.1,0,148.1,0,122.4V46.7C0,20.9,20.9,0,46.7,0
				h75.8C148.1,0,169.1,20.9,169.1,46.7z M154.1,122.4V46.7c0-17.5-14.2-31.7-31.6-31.7H46.7C29.2,15,15,29.2,15,46.7v75.8
				c0,17.5,14.2,31.7,31.7,31.7h75.8C139.9,154.1,154.1,139.9,154.1,122.4z"/>
			<path class="st0" d="M137.7,31.5c2.1,2,3.2,4.9,3.2,7.8c0,2.9-1.2,5.7-3.2,7.8c-2.1,2-4.9,3.2-7.8,3.2c-2.9,0-5.7-1.2-7.8-3.2
				c-2.1-2.1-3.2-4.9-3.2-7.8c0-2.9,1.2-5.7,3.2-7.8c2-2.1,4.9-3.2,7.8-3.2C132.8,28.3,135.7,29.4,137.7,31.5z"/>
			<path class="st0" d="M84.5,41c24,0,43.6,19.5,43.6,43.6s-19.5,43.6-43.6,43.6S41,108.6,41,84.5S60.5,41,84.5,41z M113.1,84.5
				c0-15.8-12.8-28.6-28.6-28.6S56,68.8,56,84.5s12.8,28.6,28.6,28.6S113.1,100.3,113.1,84.5z"/>
		</g>
		<g>
		</g>
	</g>
</g>
</svg>
