<svg id="Capa_1" data-name="Capa 1" xmlns="http://www.w3.org/2000/svg" viewBox="0 0 94 94"><defs><style>.cls-1{fill:#f9f9f9;}</style></defs><path class="cls-1" d="M59.1,68.49V60.35a15.73,15.73,0,0,0-.37-4.11,2.93,2.93,0,0,0-3-2.3,5,5,0,0,0-3.83,2.22v-9h-3.7V74.63h3.7v-2c1.24,1.53,2.51,2.26,3.83,2.26a2.93,2.93,0,0,0,3-2.3A16.18,16.18,0,0,0,59.1,68.49Zm14-3.41V60.85A8,8,0,0,0,71.93,56a5.12,5.12,0,0,0-4.36-2.09A5.26,5.26,0,0,0,63.13,56,8,8,0,0,0,62,60.85V68a8,8,0,0,0,1.19,4.81,5.3,5.3,0,0,0,4.49,2.09,5.14,5.14,0,0,0,4.48-2.21A5.37,5.37,0,0,0,73,70.48c0-.37.08-1.19.08-2.39v-.54H69.3c0,1.49,0,2.31-.08,2.51a1.59,1.59,0,0,1-1.66,1.49c-1.27,0-1.89-1-1.89-2.84V65.08Zm3.51-17.62c1.07,4.64,1.06,9.71,1.06,14.49s0,9.84-1.07,14.49a7.75,7.75,0,0,1-6.63,6,206.59,206.59,0,0,1-23,.85,206.77,206.77,0,0,1-23-.85,7.73,7.73,0,0,1-6.62-6c-1.07-4.65-1.07-9.71-1.07-14.49s0-9.85,1.08-14.49a7.76,7.76,0,0,1,6.63-6,206.59,206.59,0,0,1,23-.85,206.86,206.86,0,0,1,23,.85A7.76,7.76,0,0,1,76.59,47.46ZM45,74.63V54.19H41.32V69.81C40.5,71,39.72,71.54,39,71.54c-.5,0-.78-.29-.87-.86a12.86,12.86,0,0,1,0-1.44v-15H34.37V70.35a10.4,10.4,0,0,0,.33,3,2.27,2.27,0,0,0,2.39,1.52c1.36,0,2.76-.82,4.23-2.51v2.23ZM33.83,51.05V47.19H20.92v3.86h4.35V74.63H29.4V51.05Z"/><path class="cls-1" d="M57.77,35.3c.74,0,1.53-.58,2.36-1.76V17.75h3.74V38.41H60.13V36.16c-1.49,1.71-2.91,2.54-4.28,2.54a2.3,2.3,0,0,1-2.41-1.54,10.64,10.64,0,0,1-.33-3.07V17.75h3.73V33a7.89,7.89,0,0,0,0,1.45C57,35,57.26,35.3,57.77,35.3Z"/><path class="cls-1" d="M50,24.49v7.23a8.11,8.11,0,0,1-1.16,4.86,5.55,5.55,0,0,1-8.73,0A8,8,0,0,1,39,31.72V24.49a8.09,8.09,0,0,1,1.17-4.87,5.55,5.55,0,0,1,8.73,0A8.17,8.17,0,0,1,50,24.49Zm-3.74,7.94V23.74c0-1.91-.58-2.87-1.79-2.87s-1.79,1-1.79,2.87v8.69c0,1.91.58,2.87,1.79,2.87S46.29,34.34,46.29,32.43Z"/><path class="cls-1" d="M38.93,10.69l-5,16.5V38.41H29.79V27.19a69.4,69.4,0,0,0-2.54-8.78c-.87-2.57-1.78-5.15-2.66-7.72H29L31.9,21.58l2.84-10.89Z"/><path d="M73.08,67.55v.54c0,1.2,0,2-.08,2.39a5.37,5.37,0,0,1-.86,2.22,5.14,5.14,0,0,1-4.48,2.21,5.3,5.3,0,0,1-4.49-2.09A8,8,0,0,1,62,68V60.85A8,8,0,0,1,63.13,56a5.26,5.26,0,0,1,4.44-2.09A5.12,5.12,0,0,1,71.93,56a8,8,0,0,1,1.15,4.82v4.23H65.67v3.63c0,1.89.62,2.84,1.89,2.84a1.59,1.59,0,0,0,1.66-1.49c0-.2.08-1,.08-2.51ZM69.38,62V60.11c0-1.89-.62-2.84-1.85-2.84s-1.86.94-1.86,2.84V62Z"/><path d="M53.79,57.27a2.17,2.17,0,0,0-1.16.35l-.69-1.46a5,5,0,0,1,3.83-2.22,2.93,2.93,0,0,1,3,2.3,15.73,15.73,0,0,1,.37,4.11v8.14a16.18,16.18,0,0,1-.37,4.12,2.93,2.93,0,0,1-3,2.3c-1.32,0-2.59-.73-3.83-2.26l.7-1.46a2.15,2.15,0,0,0,1.15.36c1.06,0,1.61-.92,1.61-2.76V60.06C55.4,58.22,54.85,57.27,53.79,57.27Z"/><path d="M51.94,72.65v2h-3.7V47.19h3.7v9l.69,1.46a3.69,3.69,0,0,0-.69.55V70.63a3.51,3.51,0,0,0,.7.56Z"/><path d="M46.29,23.74v8.69c0,1.91-.58,2.87-1.79,2.87s-1.79-1-1.79-2.87V23.74c0-1.91.58-2.87,1.79-2.87S46.29,21.83,46.29,23.74Z"/><path d="M41.32,72.4c-1.47,1.69-2.87,2.51-4.23,2.51a2.27,2.27,0,0,1-2.39-1.52,10.4,10.4,0,0,1-.33-3V54.19h3.71v15a12.86,12.86,0,0,0,0,1.44c.09.57.37.86.87.86.74,0,1.52-.57,2.34-1.73V54.19H45V74.63H41.32Z"/><path d="M60.13,38.41h3.74V17.75H60.13V33.54c-.83,1.18-1.62,1.76-2.36,1.76-.51,0-.8-.3-.88-.88a7.89,7.89,0,0,1,0-1.45V17.75H53.11V34.09a10.64,10.64,0,0,0,.33,3.07,2.3,2.3,0,0,0,2.41,1.54c1.37,0,2.79-.83,4.28-2.54Zm-26.19,0V27.19l5-16.5H34.74L31.9,21.58,29,10.69H24.59c.88,2.57,1.79,5.15,2.66,7.72a69.4,69.4,0,0,1,2.54,8.78V38.41Zm10.56.29a5.11,5.11,0,0,0,4.37-2.12A8.11,8.11,0,0,0,50,31.72V24.49a8.17,8.17,0,0,0-1.16-4.87,5.55,5.55,0,0,0-8.73,0A8.09,8.09,0,0,0,39,24.49v7.23a8,8,0,0,0,1.17,4.86A5.12,5.12,0,0,0,44.5,38.7ZM70,41.43a206.86,206.86,0,0,0-23-.85,206.59,206.59,0,0,0-22.95.85,7.76,7.76,0,0,0-6.63,6C16.36,52.1,16.35,57.17,16.35,62s0,9.84,1.07,14.49a7.73,7.73,0,0,0,6.62,6,206.77,206.77,0,0,0,23,.85,206.59,206.59,0,0,0,23-.85,7.75,7.75,0,0,0,6.63-6c1.07-4.65,1.07-9.71,1.07-14.49s0-9.85-1.06-14.49A7.76,7.76,0,0,0,70,41.43ZM94,5V89a5,5,0,0,1-5,5H5a5,5,0,0,1-5-5V5A5,5,0,0,1,5,0H89A5,5,0,0,1,94,5Z"/><polygon points="33.83 47.19 33.83 51.05 29.4 51.05 29.4 74.63 25.27 74.63 25.27 51.05 20.92 51.05 20.92 47.19 33.83 47.19"/></svg>